<svg width="25" height="33" viewBox="0 0 25 33" fill="none" xmlns="http://www.w3.org/2000/svg">
<path fill-rule="evenodd" clip-rule="evenodd" d="M12.5185 0.00314764C16.8833 0.00314764 20.4378 3.92654 20.4378 8.74911L20.4376 11.3503C23.0912 12.3696 25 15.1579 25 18.4302V25.5065C25 29.6394 21.9552 33.0002 18.2108 33.0002H6.78924C3.04484 33.0002 0 29.6394 0 25.5065V18.4302C0 15.1585 1.9081 12.3707 4.56085 11.3509L4.56188 8.74911C4.57085 6.3733 5.40344 4.18062 6.90568 2.53735C8.40942 0.892428 10.3945 -0.0595474 12.5185 0.00314764ZM18.2108 13.4113H6.78924C4.28102 13.4113 2.24215 15.6617 2.24215 18.4302V25.5065C2.24215 28.275 4.28102 30.5254 6.78924 30.5254H18.2108C20.7175 30.5254 22.7578 28.275 22.7578 25.5065V18.4302C22.7578 15.6617 20.7175 13.4113 18.2108 13.4113ZM12.4997 18.8985C13.1185 18.8985 13.6208 19.4528 13.6208 20.1359V23.8002C13.6208 24.4833 13.1185 25.0376 12.4997 25.0376C11.8809 25.0376 11.3786 24.4833 11.3786 23.8002V20.1359C11.3786 19.4528 11.8809 18.8985 12.4997 18.8985ZM12.514 2.47795H12.4901C10.9759 2.47795 9.5574 3.1214 8.48565 4.29446C7.40643 5.47247 6.81001 7.0448 6.80404 8.72106L6.80269 10.9356H18.1943L18.1957 8.74911C18.1957 5.29098 15.6471 2.47795 12.514 2.47795Z" fill="white"/>
</svg>
